<svg preserveAspectRatio="xMidYMid meet" data-bbox="38.7 0 317.4 132.9" viewBox="38.7 0 317.4 132.9" xmlns="http://www.w3.org/2000/svg" data-type="color" role="presentation" aria-hidden="true" aria-label="">
    <g>
        <path d="m76.4 112.6.1-1 5.1-6.1 1.1-1.3c.2-.3.4-.5.6-.7-.4.1-.7.1-.9.1h-4.6l.2-1.2h7.1l-.1 1.1-5.5 6.6c-.7.8-1.1 1.3-1.3 1.5h6l-.2 1.2h-7.6z" fill="#000000" data-color="1"></path>
        <path d="M90.4 111.2c-.9 1-1.8 1.5-2.7 1.5-.6 0-1-.2-1.4-.5s-.5-.7-.5-1.2c0-.3.1-.9.2-1.6l.9-4.3h1.3l-1 4.8c-.1.4-.1.7-.1.9 0 .3.1.5.3.7.2.2.4.2.8.2s.7-.1 1-.3c.3-.2.6-.4.9-.7.2-.3.4-.6.6-1 .1-.3.2-.7.4-1.4l.7-3.2h1.3l-1.6 7.4h-1.2l.1-1.3zM88 104l.3-1.4h1.3l-.3 1.4H88zm2.6 0 .3-1.4h1.3l-.3 1.4h-1.3z" fill="#000000" data-color="1"></path>
        <path d="m93.3 112.6 1.6-7.4H96l-.3 1.5c.4-.6.8-1 1.1-1.3.4-.3.7-.4 1.1-.4.3 0 .6.1.9.3l-.5 1.2c-.2-.2-.5-.2-.7-.2-.4 0-.9.2-1.4.7-.5.5-.8 1.4-1.1 2.7l-.6 3h-1.2z" fill="#000000" data-color="1"></path>
        <path d="m98 112.6 1.6-7.4h1.3l-1.6 7.4H98zm1.9-8.9.3-1.4h1.3l-.3 1.4h-1.3z" fill="#000000" data-color="1"></path>
        <path d="m106.4 109.9 1.3.1c-.3.9-.8 1.6-1.4 2.1-.6.5-1.3.7-2 .7-.8 0-1.5-.3-2-.8s-.8-1.3-.8-2.2c0-.8.2-1.6.5-2.4.3-.8.8-1.4 1.4-1.8s1.3-.6 2.1-.6 1.4.2 1.9.7c.5.5.7 1 .7 1.8l-1.2.1c0-.5-.1-.8-.4-1.1s-.6-.4-1.1-.4c-.5 0-1 .2-1.3.5-.4.3-.7.8-.9 1.5s-.3 1.3-.3 1.9c0 .6.1 1.1.4 1.4.3.3.6.5 1 .5s.8-.2 1.2-.5c.4-.4.7-.9.9-1.5z" fill="#000000" data-color="1"></path>
        <path d="m108.5 112.6 2.1-10.3h1.3l-.8 3.9c.5-.5.9-.8 1.3-1 .4-.2.8-.3 1.3-.3.6 0 1.1.2 1.4.5.3.3.5.8.5 1.3 0 .3-.1.7-.2 1.4l-.9 4.4h-1.3l.9-4.5c.1-.7.2-1.1.2-1.2 0-.2-.1-.4-.3-.6-.2-.2-.4-.2-.7-.2-.5 0-.9.1-1.3.4-.4.2-.7.6-1 1-.2.4-.5 1.1-.6 2l-.7 3.2h-1.2z" fill="#000000" data-color="1"></path>
        <path d="m116.7 112.6.3-1.4h1.4l-.3 1.3c-.2.8-.4 1.3-.7 1.7-.3.4-.7.6-1.2.6l.1-.6c.6-.2.9-.7 1.1-1.5h-.7z" fill="#000000" data-color="1"></path>
        <path d="m124.6 112.6 2.1-10.3h1.7l1 6.7c.1.9.2 1.7.3 2.5.3-.7.8-1.6 1.4-2.8l3.6-6.4h1.7l-2.1 10.3H133l1.1-5c.2-1.2.6-2.5 1.1-3.9-.3.7-.7 1.4-1.1 2.2l-3.8 6.7H129l-1-6.6c-.1-.6-.2-1.3-.2-2.1-.1.9-.2 1.6-.3 2.1l-1.4 6.6h-1.5z" fill="#000000" data-color="1"></path>
        <path d="M141.5 111.2c-.9 1-1.8 1.5-2.7 1.5-.6 0-1-.2-1.4-.5-.4-.3-.5-.7-.5-1.2 0-.3.1-.9.2-1.6l.9-4.3h1.3l-1 4.8c-.1.4-.1.7-.1.9 0 .3.1.5.3.7.2.2.4.2.8.2s.7-.1 1-.3c.3-.2.6-.4.9-.7.2-.3.4-.6.6-1 .1-.3.2-.7.4-1.4l.7-3.2h1.3l-1.6 7.4h-1.2l.1-1.3z" fill="#000000" data-color="1"></path>
        <path d="m144.4 112.6 2.1-10.3h1.3l-.8 3.9c.5-.5.9-.8 1.3-1 .4-.2.8-.3 1.3-.3.6 0 1.1.2 1.4.5.3.3.5.8.5 1.3 0 .3-.1.7-.2 1.4l-.9 4.4h-1.3l.9-4.5c.1-.7.2-1.1.2-1.2 0-.2-.1-.4-.3-.6-.2-.2-.4-.2-.7-.2-.5 0-.9.1-1.3.4-.4.2-.7.6-1 1-.2.4-.5 1.1-.6 2l-.7 3.2h-1.2z" fill="#000000" data-color="1"></path>
        <path d="m157.8 110.1 1.2.1c-.2.6-.6 1.2-1.2 1.7-.6.6-1.4.8-2.3.8-.6 0-1.1-.1-1.5-.4-.5-.3-.8-.6-1.1-1.1-.2-.5-.4-1-.4-1.7 0-.8.2-1.6.6-2.4.4-.8.9-1.3 1.5-1.7.6-.4 1.2-.6 1.9-.6.9 0 1.6.3 2.1.8.5.6.8 1.3.8 2.3 0 .4 0 .7-.1 1.1h-5.5v.4c0 .7.2 1.2.5 1.6.3.4.7.6 1.2.6.4 0 .9-.1 1.3-.4.5-.2.8-.6 1-1.1zm-3.7-1.9h4.2v-.3c0-.6-.2-1.1-.5-1.5-.3-.3-.7-.5-1.2-.5s-1 .2-1.5.6c-.4.4-.7 1-1 1.7z" fill="#000000" data-color="1"></path>
        <path d="m160.4 112.6 1.6-7.4h1.2l-.3 1.3c.5-.5 1-.9 1.4-1.1.4-.2.9-.4 1.3-.4.6 0 1.1.2 1.4.5.3.3.5.8.5 1.3 0 .3-.1.7-.2 1.3l-.9 4.5h-1.3l1-4.7c.1-.5.1-.8.1-1 0-.2-.1-.4-.3-.6-.2-.2-.4-.2-.7-.2-.6 0-1.2.2-1.7.7-.5.5-.9 1.3-1.1 2.4l-.7 3.5h-1.3z" fill="#000000" data-color="1"></path>
        <path d="m38.7 126.6 1.3-.1v.4c0 .4.1.8.3 1.1.2.3.5.6.9.8.4.2.9.3 1.5.3.8 0 1.4-.2 1.9-.5.4-.4.6-.8.6-1.2 0-.3-.1-.6-.3-.9-.2-.3-.9-.6-1.9-1.1-.8-.3-1.3-.6-1.6-.8-.5-.3-.8-.6-1-1s-.3-.8-.3-1.2c0-.5.1-1 .4-1.4s.7-.7 1.3-1c.6-.2 1.2-.3 1.9-.3.8 0 1.5.1 2.1.4.6.3 1 .6 1.2 1.1.3.5.4.9.4 1.3v.2l-1.3.1c0-.3 0-.5-.1-.7-.1-.3-.2-.5-.4-.7s-.5-.4-.8-.5c-.3-.1-.7-.2-1.1-.2-.7 0-1.3.2-1.7.5-.3.3-.5.6-.5 1 0 .3.1.5.2.7.1.2.4.4.7.6.2.1.8.4 1.7.8.7.3 1.2.6 1.5.8.4.2.7.5.9.9.2.3.3.7.3 1.2 0 .6-.2 1.1-.5 1.5-.3.5-.8.8-1.4 1.1-.6.3-1.3.4-2 .4-1.2 0-2.1-.3-2.8-.8-1-.6-1.4-1.5-1.4-2.8z" fill="#000000" data-color="1"></path>
        <path d="m50.6 128.8-.2 1c-.3.1-.6.1-.9.1-.5 0-.9-.1-1.2-.4-.2-.2-.3-.4-.3-.8 0-.2.1-.5.2-1.1l.9-4.3h-1l.2-1h1l.4-1.8 1.4-.9-.6 2.7h1.2l-.2 1h-1.2l-.9 4.1c-.1.5-.2.8-.2.9 0 .1 0 .3.1.3.1.1.2.1.4.1.4.2.7.2.9.1z" fill="#000000" data-color="1"></path>
        <path d="m57 127.3 1.2.1c-.2.6-.6 1.2-1.2 1.7s-1.4.8-2.3.8c-.5 0-1-.1-1.5-.4-.5-.3-.8-.6-1-1.1-.2-.5-.4-1-.4-1.6 0-.8.2-1.6.6-2.3.4-.8.9-1.3 1.4-1.7.6-.4 1.2-.6 1.9-.6.9 0 1.6.3 2.1.8s.8 1.3.8 2.2c0 .4 0 .7-.1 1.1h-5.4v.4c0 .7.2 1.2.5 1.6.3.4.7.5 1.2.5.4 0 .9-.1 1.3-.4.3-.1.7-.5.9-1.1zm-3.7-1.8h4.1v-.3c0-.6-.2-1.1-.5-1.4-.3-.3-.7-.5-1.2-.5s-1 .2-1.5.6c-.3.3-.6.9-.9 1.6z" fill="#000000" data-color="1"></path>
        <path d="m59.4 129.8 1.5-7.4h1.3l-1.5 7.4h-1.3zm1.9-8.7.3-1.4h1.2l-.3 1.4h-1.2z" fill="#000000" data-color="1"></path>
        <path d="m62.6 129.8 1.5-7.4h1.1l-.3 1.3c.5-.5 1-.9 1.4-1.1.4-.2.9-.3 1.3-.3.6 0 1.1.2 1.4.5.3.3.5.8.5 1.3 0 .3-.1.7-.2 1.3l-.9 4.5h-1.3l1-4.7c.1-.5.1-.8.1-1 0-.2-.1-.4-.3-.6-.2-.2-.4-.2-.7-.2-.6 0-1.2.2-1.7.7-.5.5-.9 1.3-1.1 2.4l-.7 3.4h-1.1z" fill="#000000" data-color="1"></path>
        <path d="m70.6 129.8 2.1-10.2H74l-.8 3.9c.5-.5.9-.8 1.3-1 .4-.2.8-.3 1.2-.3.6 0 1.1.2 1.4.5.3.3.5.7.5 1.3 0 .3-.1.7-.2 1.4l-.9 4.4h-1.3l.9-4.5c.1-.6.2-1.1.2-1.2 0-.2-.1-.4-.2-.6-.2-.2-.4-.2-.7-.2-.5 0-.9.1-1.3.4-.4.2-.7.6-1 1-.2.4-.4 1.1-.6 2l-.7 3.2h-1.2z" fill="#000000" data-color="1"></path>
        <path d="M83.4 128.9c-.4.4-.9.6-1.3.8-.4.2-.8.3-1.3.3-.7 0-1.2-.2-1.6-.6-.4-.4-.6-.9-.6-1.5 0-.4.1-.8.3-1.1.2-.3.4-.6.7-.8.3-.2.7-.3 1.1-.4.3-.1.8-.1 1.6-.1s1.4-.1 1.7-.2c.1-.3.1-.6.1-.9 0-.3-.1-.5-.3-.7-.3-.2-.7-.3-1.3-.3-.5 0-1 .1-1.3.4-.3.2-.6.6-.7 1l-1.3-.1c.3-.7.7-1.3 1.2-1.7.6-.4 1.3-.6 2.1-.6.9 0 1.6.2 2.2.7.4.3.6.7.6 1.3 0 .4-.1.8-.2 1.4l-.4 1.8c-.1.6-.2 1.1-.2 1.4 0 .2.1.6.2 1h-1.3c.1-.4.1-.7 0-1.1zm.5-2.8c-.2.1-.4.1-.6.2-.2 0-.5.1-1 .1-.7.1-1.2.1-1.5.2-.3.1-.5.3-.7.5-.2.2-.2.5-.2.7 0 .4.1.6.4.9s.6.3 1 .3.8-.1 1.2-.3c.4-.2.7-.5.9-.9.2-.4.4-1 .5-1.7z" fill="#000000" data-color="1"></path>
        <path d="M91.4 128.5c-.9 1-1.8 1.5-2.7 1.5-.6 0-1-.2-1.4-.5-.3-.3-.5-.7-.5-1.2 0-.3.1-.8.2-1.6l.9-4.3h1.3l-1 4.7c-.1.4-.1.7-.1.9 0 .3.1.5.3.6.2.2.4.2.7.2.4 0 .7-.1 1-.3.3-.2.6-.4.9-.7.2-.3.4-.6.6-1 .1-.3.2-.7.4-1.3l.7-3.2H94l-1.5 7.4h-1.2l.1-1.2z" fill="#000000" data-color="1"></path>
        <path d="m94.4 127.3 1.3-.1c0 .4.1.7.2.9.1.3.3.5.6.6.3.2.6.2 1 .2.6 0 1-.1 1.2-.3.3-.2.4-.5.4-.8 0-.2-.1-.4-.2-.6-.2-.2-.6-.4-1.3-.7-.7-.3-1.1-.5-1.3-.6-.3-.2-.5-.4-.7-.7-.2-.3-.2-.6-.2-.9 0-.6.2-1.1.7-1.5.5-.4 1.1-.6 1.9-.6.9 0 1.6.2 2.1.6.5.4.7 1 .8 1.7l-1.2.1c0-.4-.2-.8-.5-1.1-.3-.3-.7-.4-1.3-.4-.4 0-.8.1-1 .3-.2.2-.4.4-.4.6 0 .2.1.4.3.6.1.1.5.3 1.1.6 1 .4 1.6.7 1.8 1 .4.4.6.9.6 1.4 0 .4-.1.7-.3 1.1-.2.4-.6.6-1 .8-.5.2-1 .3-1.6.3-.9 0-1.6-.2-2.2-.6-.6-.2-.8-.9-.8-1.9z" fill="#000000" data-color="1"></path>
        <path d="m106.8 127.3 1.2.1c-.2.6-.6 1.2-1.2 1.7s-1.4.8-2.3.8c-.5 0-1-.1-1.5-.4-.5-.3-.8-.6-1-1.1-.2-.5-.4-1-.4-1.6 0-.8.2-1.6.6-2.3.4-.8.9-1.3 1.4-1.7.6-.4 1.2-.6 1.9-.6.9 0 1.6.3 2.1.8s.8 1.3.8 2.2c0 .4 0 .7-.1 1.1h-5.4v.4c0 .7.2 1.2.5 1.6.3.4.7.5 1.2.5.4 0 .9-.1 1.3-.4.3-.1.7-.5.9-1.1zm-3.7-1.8h4.1v-.3c0-.6-.2-1.1-.5-1.4-.3-.3-.7-.5-1.2-.5s-1 .2-1.5.6c-.3.3-.6.9-.9 1.6z" fill="#000000" data-color="1"></path>
        <path d="m109.3 129.8 1.5-7.4h1.1l-.3 1.3c.5-.5 1-.9 1.4-1.1.4-.2.9-.3 1.3-.3.6 0 1.1.2 1.4.5.3.3.5.8.5 1.3 0 .3-.1.7-.2 1.3l-.9 4.5h-1.3l1-4.7c.1-.5.1-.8.1-1 0-.2-.1-.4-.3-.6-.2-.2-.4-.2-.7-.2-.6 0-1.2.2-1.7.7-.5.5-.9 1.3-1.1 2.4l-.7 3.4h-1.1z" fill="#000000" data-color="1"></path>
        <path d="m117.5 129.8.3-1.4h1.4l-.3 1.2c-.2.7-.4 1.3-.7 1.6-.3.3-.7.5-1.2.6l.1-.5c.6-.2.9-.7 1.1-1.5h-.7z" fill="#000000" data-color="1"></path>
        <path d="m125.3 129.8 2.1-10.2h4.3c.8 0 1.5.1 1.9.2.4.1.8.4 1 .8.2.4.4.9.4 1.5 0 .8-.3 1.5-.8 2.1-.5.5-1.4.9-2.6 1.1.4.3.7.5.8.8.4.6.8 1.2 1 1.9l.8 1.9h-1.5l-.7-1.9c-.3-.7-.6-1.3-.9-1.8-.2-.3-.5-.6-.7-.7-.2-.1-.6-.2-1.2-.2h-1.6l-.9 4.5h-1.4zm2.5-5.6h3.6c.5-.1.9-.2 1.3-.3.3-.2.6-.4.8-.7.2-.3.3-.6.3-1 0-.3-.1-.6-.2-.8-.1-.2-.3-.4-.5-.4-.2-.1-.6-.1-1.1-.1h-3.3l-.9 3.3z" fill="#000000" data-color="1"></path>
        <path d="M140.4 128.5c-.9 1-1.8 1.5-2.7 1.5-.6 0-1-.2-1.4-.5-.3-.3-.5-.7-.5-1.2 0-.3.1-.8.2-1.6l.9-4.3h1.3l-1 4.7c-.1.4-.1.7-.1.9 0 .3.1.5.3.6.2.2.4.2.7.2.4 0 .7-.1 1-.3.3-.2.6-.4.9-.7.2-.3.4-.6.6-1 .1-.3.2-.7.4-1.3l.7-3.2h1.3l-1.5 7.4h-1.2l.1-1.2z" fill="#000000" data-color="1"></path>
        <path d="m143.4 127.3 1.3-.1c0 .4.1.7.2.9.1.3.3.5.6.6.3.2.6.2 1 .2.6 0 1-.1 1.2-.3.3-.2.4-.5.4-.8 0-.2-.1-.4-.2-.6-.2-.2-.6-.4-1.3-.7-.7-.3-1.1-.5-1.3-.6-.3-.2-.5-.4-.7-.7-.2-.3-.2-.6-.2-.9 0-.6.2-1.1.7-1.5.5-.4 1.1-.6 1.9-.6.9 0 1.6.2 2.1.6.5.4.7 1 .8 1.7l-1.2.1c0-.4-.2-.8-.5-1.1-.3-.3-.7-.4-1.3-.4-.4 0-.8.1-1 .3-.2.2-.4.4-.4.6 0 .2.1.4.3.6.1.1.5.3 1.1.6 1 .4 1.6.7 1.8 1 .4.4.6.9.6 1.4 0 .4-.1.7-.3 1.1-.2.4-.6.6-1 .8-.5.2-1 .3-1.6.3-.9 0-1.6-.2-2.2-.6-.6-.2-.9-.9-.8-1.9z" fill="#000000" data-color="1"></path>
        <path d="m151.8 129.8-.8-7.4h1.2l.3 3.3.1 1.9v.8c.1-.5.3-.8.4-1.1.1-.3.3-.6.5-1.1l1.8-3.8h1.4l.2 3.7c0 .6.1 1.3.1 2.2.2-.6.6-1.5 1.1-2.6l1.6-3.3h1.3l-3.6 7.4H156l-.3-4.3v-1.6c-.2.5-.4 1-.7 1.6l-2 4.3h-1.2z" fill="#000000" data-color="1"></path>
        <path d="m160.6 129.8 1.5-7.4h1.3l-1.5 7.4h-1.3zm1.8-8.7.3-1.4h1.2l-.3 1.4h-1.2z" fill="#000000" data-color="1"></path>
        <path d="m163.7 129.8 2.1-10.2h1.3l-2.1 10.2h-1.3z" fill="#000000" data-color="1"></path>
        <path d="m179.9 112.5 2.1-10.2h7.4l-.3 1.7h-5.4l-.5 2.3h5.2l-.4 1.7h-5.2l-.6 2.8h5.8l-.4 1.7h-7.7z" fill="#1d1d1b" data-color="2"></path>
        <path d="M191 105.1h2l-1.5 7.4h-2l1.5-7.4zm.5-2.8h2l-.4 1.8h-2l.4-1.8z" fill="#1d1d1b" data-color="2"></path>
        <path d="m198.5 109.7 1.9.3c-.3.9-.8 1.5-1.4 2-.6.4-1.3.7-2.1.7-.9 0-1.7-.3-2.2-.8s-.8-1.3-.8-2.3c0-.8.2-1.6.5-2.3.3-.7.8-1.3 1.5-1.7.7-.4 1.4-.6 2.2-.6.9 0 1.5.2 2.1.7s.8 1 .9 1.8l-1.9.2c0-.4-.2-.7-.4-.9-.2-.2-.5-.3-.8-.3-.4 0-.7.1-1.1.4-.3.3-.6.7-.8 1.3s-.3 1.1-.3 1.6c0 .4.1.8.3 1 .2.2.5.4.8.4s.6-.1.9-.3c.3-.4.5-.7.7-1.2z" fill="#1d1d1b" data-color="2"></path>
        <path d="M203.6 112.5h-2l2.1-10.2h2l-.8 3.6c.4-.4.9-.6 1.2-.8.4-.2.8-.2 1.2-.2.6 0 1.1.2 1.4.5s.5.8.5 1.3c0 .3-.1.8-.2 1.4l-.9 4.3h-2l.9-4.4c.1-.5.1-.8.1-.9 0-.2-.1-.4-.2-.6-.2-.1-.4-.2-.6-.2-.3 0-.6.1-.9.3-.4.3-.7.7-.9 1.1-.1.2-.3.8-.5 1.7l-.4 3.1z" fill="#1d1d1b" data-color="2"></path>
        <path d="M217.5 109.4h-4.9v.2c0 .5.1.9.4 1.2.3.3.6.5 1 .5.7 0 1.2-.3 1.5-1l1.8.3c-.3.7-.8 1.3-1.4 1.6-.6.4-1.2.5-1.9.5-1 0-1.8-.3-2.4-.9s-.9-1.5-.9-2.5.3-1.9.8-2.7c.8-1.1 1.8-1.6 3.2-1.6.9 0 1.6.3 2.1.8s.8 1.3.8 2.3c0 .5 0 .9-.1 1.3zm-1.7-1.2v-.2c0-.5-.1-1-.4-1.2-.2-.3-.6-.4-1-.4s-.8.2-1.1.5c-.3.3-.5.8-.7 1.4h3.2z" fill="#1d1d1b" data-color="2"></path>
        <path d="M220 105.1h1.9l-.2 1c.5-.4.9-.7 1.3-.9.4-.2.8-.3 1.3-.3.6 0 1.1.2 1.4.5.3.3.5.8.5 1.4 0 .3-.1.7-.2 1.5l-.9 4.2h-2l.9-4.2c.1-.6.2-1 .2-1.1 0-.3-.1-.5-.2-.6s-.4-.2-.6-.2c-.3 0-.6.1-1 .4-.4.2-.6.6-.8 1-.1.3-.3.9-.5 1.8l-.6 3h-2l1.5-7.5z" fill="#1d1d1b" data-color="2"></path>
        <path d="m227.2 112.5 2.1-10.2h2l-.7 3.4c.4-.3.7-.5 1-.6.3-.1.7-.2 1-.2.8 0 1.4.3 1.8.8.5.5.7 1.3.7 2.3 0 .7-.1 1.3-.3 2-.2.6-.5 1.1-.9 1.5-.4.4-.7.7-1.1.9-.4.2-.8.3-1.3.3-1 0-1.8-.5-2.3-1.4l-.3 1.2h-1.7zm2.6-3c0 .5.1.9.4 1.2.3.3.6.5 1 .5.3 0 .6-.1.9-.4.3-.2.5-.6.7-1.2s.3-1.1.3-1.6-.1-.9-.4-1.2-.6-.4-1-.4c-.5 0-.9.2-1.3.7-.3.6-.6 1.4-.6 2.4z" fill="#1d1d1b" data-color="2"></path>
        <path d="M243.1 109.4h-4.9v.2c0 .5.1.9.4 1.2.3.3.6.5 1 .5.7 0 1.2-.3 1.5-1l1.8.3c-.3.7-.8 1.3-1.4 1.6-.6.4-1.2.5-1.9.5-1 0-1.8-.3-2.4-.9s-.9-1.5-.9-2.5.3-1.9.8-2.7c.8-1.1 1.8-1.6 3.2-1.6.9 0 1.6.3 2.1.8s.8 1.3.8 2.3c0 .5 0 .9-.1 1.3zm-1.7-1.2v-.2c0-.5-.1-1-.4-1.2-.2-.3-.6-.4-1-.4s-.8.2-1.1.5c-.3.3-.5.8-.7 1.4h3.2z" fill="#1d1d1b" data-color="2"></path>
        <path d="M245.4 105.1h1.8l-.3 1.4c.7-1.1 1.4-1.6 2.2-1.6.3 0 .6.1.9.2l-.8 1.6c-.2-.1-.4-.1-.6-.1-.3 0-.7.1-1 .4s-.6.6-.8 1c-.2.4-.4 1.1-.6 2.1l-.5 2.3h-2l1.7-7.3z" fill="#1d1d1b" data-color="2"></path>
        <path d="m249.6 112.9 2.1.3c0 .2 0 .4.1.5l.3.3c.2.1.4.1.6.1.4 0 .7-.1 1-.2.2-.1.3-.3.5-.6.1-.2.2-.6.3-1.2l.1-.3c-.7.6-1.4.9-2.1.9-.7 0-1.3-.3-1.8-.8s-.7-1.3-.7-2.2c0-.9.2-1.7.5-2.4s.7-1.3 1.3-1.6c.6-.4 1.1-.6 1.7-.6.5 0 .9.1 1.3.4s.7.6.9 1.1l.3-1.3h1.8l-1.3 6.1c-.2 1-.4 1.7-.5 2.1-.1.4-.3.8-.5 1-.2.2-.4.5-.7.6s-.6.3-1 .4c-.4.1-.8.1-1.2.1-1 0-1.8-.2-2.3-.5-.5-.4-.8-.9-.8-1.8.1-.2.1-.3.1-.4zm2.3-3.6c0 .6.1 1 .4 1.3.2.3.6.4.9.4.3 0 .7-.1 1-.4.3-.3.6-.6.7-1.1.2-.5.3-1 .3-1.4 0-.5-.1-.9-.4-1.3-.3-.3-.6-.5-1-.5s-.7.1-1 .4c-.3.3-.5.7-.7 1.3-.1.5-.2.9-.2 1.3z" fill="#1d1d1b" data-color="2"></path>
        <path d="M265.6 109.4h-4.9v.2c0 .5.1.9.4 1.2.3.3.6.5 1 .5.7 0 1.2-.3 1.5-1l1.8.3c-.3.7-.8 1.3-1.4 1.6-.6.4-1.2.5-1.9.5-1 0-1.8-.3-2.4-.9s-.9-1.5-.9-2.5.3-1.9.8-2.7c.8-1.1 1.8-1.6 3.2-1.6.9 0 1.6.3 2.1.8s.8 1.3.8 2.3c0 .5 0 .9-.1 1.3zm-1.7-1.2v-.2c0-.5-.1-1-.4-1.2-.2-.3-.6-.4-1-.4s-.8.2-1.1.5c-.3.3-.5.8-.7 1.4h3.2z" fill="#1d1d1b" data-color="2"></path>
        <path d="M268 105.1h1.8l-.3 1.4c.7-1.1 1.4-1.6 2.2-1.6.3 0 .6.1.9.2l-.8 1.6c-.2-.1-.4-.1-.6-.1-.3 0-.7.1-1 .4s-.6.6-.8 1c-.2.4-.4 1.1-.6 2.1l-.5 2.3h-2l1.7-7.3z" fill="#1d1d1b" data-color="2"></path>
        <path d="M282.4 110.2h-4l-1.2 2.2h-2.1l5.7-10.2h2.3l1.6 10.2h-2l-.3-2.2zm-.3-1.7-.6-4.1-2.4 4.1h3z" fill="#1d1d1b" data-color="2"></path>
        <path d="M291.7 107h4.5l-.9 4.4c-.5.3-1.2.6-1.9.9-.8.2-1.6.4-2.3.4-1.2 0-2.2-.3-2.9-.9-.9-.8-1.4-1.9-1.4-3.4 0-1 .2-1.9.6-2.8.5-1.1 1.1-1.9 2-2.5s1.9-.9 3-.9 2.1.3 2.8.8c.7.5 1.2 1.3 1.4 2.4l-1.9.2c-.2-.6-.4-1-.8-1.3s-.8-.4-1.4-.4c-.7 0-1.3.2-1.8.5-.6.4-1 .9-1.3 1.6s-.5 1.5-.5 2.4c0 .9.2 1.5.6 1.9.4.4.9.6 1.7.6.4 0 .9-.1 1.4-.2s.9-.3 1.2-.5l.3-1.5h-2.6l.2-1.7z" fill="#1d1d1b" data-color="2"></path>
        <path d="m176.5 129.8 2.1-10.2h3.4c.7 0 1.3 0 1.6.1.5.1.9.2 1.3.4s.6.5.8.8c.2.3.3.7.3 1.1 0 .6-.2 1.1-.5 1.5-.3.4-.8.7-1.4.9.5.1.9.4 1.2.8.3.4.4.8.4 1.2 0 .6-.2 1.2-.5 1.7s-.8.9-1.4 1.2c-.6.2-1.4.4-2.5.4h-4.8zm2.4-1.6h2c.8 0 1.4-.1 1.7-.2.3-.1.5-.3.7-.5.2-.2.3-.5.3-.8 0-.3-.1-.6-.4-.8-.2-.2-.7-.3-1.2-.3h-2.5l-.6 2.6zm.9-4.4h1.6c.7 0 1.2-.1 1.5-.2.3-.1.5-.3.7-.5s.2-.5.2-.7c0-.3-.1-.5-.2-.6-.1-.2-.4-.3-.6-.3h-2.7l-.5 2.3z" fill="#1d1d1b" data-color="2"></path>
        <path d="m189.6 124.6-1.9-.2c.2-.7.6-1.2 1.1-1.5.5-.4 1.3-.6 2.2-.6.9 0 1.6.2 2.1.6.4.4.7.8.7 1.4 0 .2 0 .5-.1.7 0 .2-.2.9-.4 2-.2.9-.3 1.5-.3 1.8 0 .3.1.7.2 1h-1.9c-.1-.3-.1-.5-.1-.8-.3.3-.6.6-1 .7-.4.2-.8.3-1.1.3-.6 0-1.1-.2-1.5-.6-.4-.4-.6-.9-.6-1.5 0-.7.2-1.3.6-1.7s1.2-.7 2.3-.8c.9-.1 1.6-.2 1.9-.3.1-.3.1-.5.1-.7 0-.2-.1-.4-.3-.5-.2-.1-.4-.2-.8-.2s-.6.1-.8.2c-.2.2-.3.4-.4.7zm1.9 1.8c-.1 0-.3.1-.5.1-1 .1-1.6.3-1.9.5-.2.2-.3.4-.3.7 0 .2.1.4.2.6.2.2.4.2.6.2.3 0 .6-.1.8-.2.3-.1.5-.3.6-.6s.2-.6.3-1.1l.2-.2z" fill="#1d1d1b" data-color="2"></path>
        <path d="M196.4 122.5h2l-.9 4.4c-.1.5-.2.8-.2 1 0 .2.1.4.2.5.2.2.4.2.6.2.2 0 .3 0 .5-.1s.3-.2.5-.3c.2-.1.3-.3.5-.5s.3-.4.4-.7c.1-.2.2-.6.3-1l.7-3.5h2l-1.5 7.4h-1.8l.2-1c-.8.8-1.7 1.2-2.6 1.2-.6 0-1.1-.2-1.4-.5s-.5-.8-.5-1.4c0-.3.1-.8.2-1.5l.8-4.2z" fill="#1d1d1b" data-color="2"></path>
        <path d="M205.2 122.5h2l-1.5 7.4h-2l1.5-7.4zm.6-2.8h2l-.4 1.8h-2l.4-1.8z" fill="#1d1d1b" data-color="2"></path>
        <path d="M209.4 122.5h1.9l-.2 1c.5-.4.9-.7 1.3-.9.4-.2.8-.3 1.3-.3.6 0 1.1.2 1.4.5.3.3.5.8.5 1.4 0 .3-.1.7-.2 1.5l-.9 4.2h-2l.9-4.2c.1-.6.2-1 .2-1.1 0-.3-.1-.5-.2-.6s-.4-.2-.6-.2c-.3 0-.6.1-1 .4-.4.2-.6.6-.8 1-.1.3-.3.9-.5 1.8l-.6 3h-2l1.5-7.5z" fill="#1d1d1b" data-color="2"></path>
        <path d="m216.5 130.2 2.1.3c0 .2 0 .4.1.5l.3.3c.2.1.4.1.6.1.4 0 .7-.1 1-.2.2-.1.3-.3.5-.6.1-.2.2-.6.3-1.2l.1-.3c-.7.6-1.4.9-2.1.9-.7 0-1.3-.3-1.8-.8s-.7-1.3-.7-2.2c0-.9.2-1.7.5-2.4s.7-1.3 1.3-1.6c.6-.4 1.1-.6 1.7-.6.5 0 .9.1 1.3.4s.7.6.9 1.1l.3-1.3h1.8l-1.3 6.1c-.2 1-.4 1.7-.5 2.1-.1.4-.3.8-.5 1-.2.2-.4.5-.7.6s-.6.3-1 .4c-.4.1-.8.1-1.2.1-1 0-1.8-.2-2.3-.5-.5-.4-.8-.9-.8-1.8.1-.2.1-.3.1-.4zm2.3-3.5c0 .6.1 1 .4 1.3.2.3.6.4.9.4.3 0 .7-.1 1-.4.3-.3.6-.6.7-1.1.2-.5.3-1 .3-1.4 0-.5-.1-.9-.4-1.3-.3-.3-.6-.5-1-.5s-.7.1-1 .4c-.3.3-.5.7-.7 1.3-.1.5-.2.9-.2 1.3z" fill="#1d1d1b" data-color="2"></path>
        <path d="M232.5 126.8h-4.9v.2c0 .5.1.9.4 1.2.3.3.6.5 1 .5.7 0 1.2-.3 1.5-1l1.8.3c-.3.7-.8 1.3-1.4 1.6-.6.4-1.2.5-1.9.5-1 0-1.8-.3-2.4-.9s-.9-1.5-.9-2.5.3-1.9.8-2.7c.8-1.1 1.8-1.6 3.2-1.6.9 0 1.6.3 2.1.8s.8 1.3.8 2.3c0 .5 0 .9-.1 1.3zm-1.7-1.2v-.2c0-.5-.1-1-.4-1.2-.2-.3-.6-.4-1-.4s-.8.2-1.1.5c-.3.3-.5.8-.7 1.4h3.2z" fill="#1d1d1b" data-color="2"></path>
        <path d="M235 122.5h1.9l-.2 1c.5-.4.9-.7 1.3-.9.4-.2.8-.3 1.3-.3.6 0 1.1.2 1.4.5.3.3.5.8.5 1.4 0 .3-.1.7-.2 1.5l-.9 4.2h-2l.9-4.2c.1-.6.2-1 .2-1.1 0-.3-.1-.5-.2-.6s-.4-.2-.6-.2c-.3 0-.6.1-1 .4-.4.2-.6.6-.8 1-.1.3-.3.9-.5 1.8l-.6 3h-2l1.5-7.5z" fill="#1d1d1b" data-color="2"></path>
        <path d="M243.7 122.5h2l-1.5 7.4h-2l1.5-7.4zm.6-2.8h2l-.4 1.8h-2l.4-1.8z" fill="#1d1d1b" data-color="2"></path>
        <path d="M253.4 126.8h-4.9v.2c0 .5.1.9.4 1.2.3.3.6.5 1 .5.7 0 1.2-.3 1.5-1l1.8.3c-.3.7-.8 1.3-1.4 1.6-.6.4-1.2.5-1.9.5-1 0-1.8-.3-2.4-.9s-.9-1.5-.9-2.5.3-1.9.8-2.7c.8-1.1 1.8-1.6 3.2-1.6.9 0 1.6.3 2.1.8s.8 1.3.8 2.3c.1.5 0 .9-.1 1.3zm-1.6-1.2v-.2c0-.5-.1-1-.4-1.2-.2-.3-.6-.4-1-.4s-.8.2-1.1.5c-.3.3-.5.8-.7 1.4h3.2z" fill="#1d1d1b" data-color="2"></path>
        <path d="M255.9 122.5h2l-.9 4.4c-.1.5-.2.8-.2 1 0 .2.1.4.2.5.2.2.4.2.6.2.2 0 .3 0 .5-.1s.3-.2.5-.3c.2-.1.3-.3.5-.5s.3-.4.4-.7c.1-.2.2-.6.3-1l.7-3.5h2l-1.5 7.4h-1.8l.2-1c-.8.8-1.7 1.2-2.6 1.2-.6 0-1.1-.2-1.4-.5s-.5-.8-.5-1.4c0-.3.1-.8.2-1.5l.8-4.2z" fill="#1d1d1b" data-color="2"></path>
        <path d="M264.6 122.5h1.8l-.3 1.4c.7-1.1 1.4-1.6 2.2-1.6.3 0 .6.1.9.2l-.8 1.6c-.2-.1-.4-.1-.6-.1-.3 0-.7.1-1 .4s-.6.6-.8 1c-.2.4-.4 1.1-.6 2.1l-.5 2.3h-2l1.7-7.3z" fill="#1d1d1b" data-color="2"></path>
        <path d="M275.9 126.8H271v.2c0 .5.1.9.4 1.2.3.3.6.5 1 .5.7 0 1.2-.3 1.5-1l1.8.3c-.3.7-.8 1.3-1.4 1.6-.6.4-1.2.5-1.9.5-1 0-1.8-.3-2.4-.9s-.9-1.5-.9-2.5.3-1.9.8-2.7c.8-1.1 1.8-1.6 3.2-1.6.9 0 1.6.3 2.1.8s.8 1.3.8 2.3c.1.5 0 .9-.1 1.3zm-1.6-1.2v-.2c0-.5-.1-1-.4-1.2-.2-.3-.6-.4-1-.4s-.8.2-1.1.5c-.3.3-.5.8-.7 1.4h3.2z" fill="#1d1d1b" data-color="2"></path>
        <path d="M282.5 122.5h2l-.9 4.4c-.1.5-.2.8-.2 1 0 .2.1.4.2.5.2.2.4.2.6.2.2 0 .3 0 .5-.1s.3-.2.5-.3c.2-.1.3-.3.5-.5s.3-.4.4-.7c.1-.2.2-.6.3-1l.7-3.5h2l-1.5 7.4h-1.8l.2-1c-.8.8-1.7 1.2-2.6 1.2-.6 0-1.1-.2-1.4-.5s-.5-.8-.5-1.4c0-.3.1-.8.2-1.5l.8-4.2z" fill="#1d1d1b" data-color="2"></path>
        <path d="M291.4 122.5h1.9l-.2 1c.5-.4.9-.7 1.3-.9.4-.2.8-.3 1.3-.3.6 0 1.1.2 1.4.5.3.3.5.8.5 1.4 0 .3-.1.7-.2 1.5l-.9 4.2h-2l.9-4.2c.1-.6.2-1 .2-1.1 0-.3-.1-.5-.2-.6s-.4-.2-.6-.2c-.3 0-.6.1-1 .4-.4.2-.6.6-.8 1-.1.3-.3.9-.5 1.8l-.6 3h-2l1.5-7.5z" fill="#1d1d1b" data-color="2"></path>
        <path d="M305.3 129.8h-1.9l.2-.8c-.4.3-.7.6-1 .7-.3.1-.7.2-1.2.2-.8 0-1.4-.3-1.8-.8-.5-.5-.7-1.3-.7-2.3 0-1.2.3-2.2 1-3.2s1.5-1.4 2.6-1.4c1 0 1.7.4 2.2 1.2l.8-3.8h2l-2.2 10.2zm-4.5-3c0 .5.1.9.4 1.2.3.3.6.4 1 .4s.7-.1 1-.4c.3-.2.6-.6.7-1.1.2-.5.3-1 .3-1.5s-.1-1-.4-1.3c-.3-.3-.6-.5-1-.5-.6 0-1 .3-1.4 1s-.6 1.5-.6 2.2z" fill="#1d1d1b" data-color="2"></path>
        <path d="M313.6 129.8h-2.1l2.1-10.2h4.1c.7 0 1.3.1 1.7.3.4.2.8.5 1 .9.2.4.4.9.4 1.4 0 .5-.1 1-.3 1.5s-.4.9-.7 1.2c-.3.3-.6.5-.9.7-.3.1-.8.3-1.3.3-.3 0-.9.1-1.8.1h-1.3l-.9 3.8zm1.1-5.5h.6c1.1 0 1.8-.1 2.2-.2.4-.1.7-.4.9-.7s.3-.6.3-1c0-.2-.1-.4-.2-.6-.1-.2-.3-.3-.5-.3-.2-.1-.6-.1-1.3-.1h-1.5l-.5 2.9z" fill="#1d1d1b" data-color="2"></path>
        <path d="m321.1 129.8 2.1-10.2h2l-2.1 10.2h-2z" fill="#1d1d1b" data-color="2"></path>
        <path d="m328 124.6-1.9-.2c.2-.7.6-1.2 1.1-1.5.5-.4 1.3-.6 2.2-.6.9 0 1.6.2 2.1.6.4.4.7.8.7 1.4 0 .2 0 .5-.1.7 0 .2-.2.9-.4 2-.2.9-.3 1.5-.3 1.8 0 .3.1.7.2 1h-1.9c-.1-.3-.1-.5-.1-.8-.3.3-.6.6-1 .7-.4.2-.8.3-1.1.3-.6 0-1.1-.2-1.5-.6-.4-.4-.6-.9-.6-1.5 0-.7.2-1.3.6-1.7s1.2-.7 2.3-.8c.9-.1 1.6-.2 1.9-.3.1-.3.1-.5.1-.7 0-.2-.1-.4-.3-.5-.2-.1-.4-.2-.8-.2s-.6.1-.8.2c-.2.2-.3.4-.4.7zm1.9 1.8c-.1 0-.3.1-.5.1-1 .1-1.6.3-1.9.5-.2.2-.3.4-.3.7 0 .2.1.4.2.6.2.2.4.2.6.2.3 0 .6-.1.8-.2.3-.1.5-.3.6-.6s.2-.6.3-1.1l.2-.2z" fill="#1d1d1b" data-color="2"></path>
        <path d="M334.8 122.5h1.9l-.2 1c.5-.4.9-.7 1.3-.9.4-.2.8-.3 1.3-.3.6 0 1.1.2 1.4.5.3.3.5.8.5 1.4 0 .3-.1.7-.2 1.5l-.9 4.2h-2l.9-4.2c.1-.6.2-1 .2-1.1 0-.3-.1-.5-.2-.6s-.4-.2-.6-.2c-.3 0-.6.1-1 .4-.4.2-.6.6-.8 1-.1.3-.3.9-.5 1.8l-.6 3h-2l1.5-7.5z" fill="#1d1d1b" data-color="2"></path>
        <path d="M349.1 126.8h-4.9v.2c0 .5.1.9.4 1.2.3.3.6.5 1 .5.7 0 1.2-.3 1.5-1l1.8.3c-.3.7-.8 1.3-1.4 1.6-.6.4-1.2.5-1.9.5-1 0-1.8-.3-2.4-.9s-.9-1.5-.9-2.5.3-1.9.8-2.7c.8-1.1 1.8-1.6 3.2-1.6.9 0 1.6.3 2.1.8s.8 1.3.8 2.3c.1.5 0 .9-.1 1.3zm-1.6-1.2v-.2c0-.5-.1-1-.4-1.2-.2-.3-.6-.4-1-.4s-.8.2-1.1.5c-.3.3-.5.8-.7 1.4h3.2z" fill="#1d1d1b" data-color="2"></path>
        <path d="M351.5 122.5h1.8l-.3 1.4c.7-1.1 1.4-1.6 2.2-1.6.3 0 .6.1.9.2l-.8 1.6c-.2-.1-.4-.1-.6-.1-.3 0-.7.1-1 .4s-.6.6-.8 1c-.2.4-.4 1.1-.6 2.1l-.5 2.3h-2l1.7-7.3z" fill="#1d1d1b" data-color="2"></path>
        <path d="m170.9 129.9-.4-.1 12.8-91.3.4.1-12.8 91.3zm62.3-38.6-.4-.1L245.6 0h.4l-12.8 91.3z" fill="#1d1d1b" data-color="2"></path>
        <path fill="#ff4539" d="m173.2 38.6-1.5 10.9h-21.3l-1.2 9.2h19.2l-1.6 11h-19.1l-1.5 10.5h24.9l-1.4 11.1h-37.5l7.5-52.7h33.5" data-color="3"></path>
        <path d="M202.4 72.1c1.4-3.2 2.9-6.5 4.3-9.8 1.4-3.5 2.7-6.9 3.9-10.4.1 6.8.1 8.7 1.9 20.1h-10.1v.1zm3.9-33.4-24.8 52.5h12.7l4.4-9.8h14.9l1.2 9.8h12.7l-8.7-52.6h-12.4" fill="#ff4539" data-color="3"></path>
        <path d="M292.7 50c-1.6-.3-6.8-1.4-12-1.4-2.1 0-10.3.1-16.7 4-1 .7-3.3 2.1-5.4 4.9-1 1.4-3.5 5.1-3.5 10.2 0 6.3 3.6 9.7 5.6 11 4.3 3.1 10.2 3.1 11.5 3.1 1.8 0 2.8-.1 4.6-.4l1-8.7h-10.3l1.3-9.9h22.3l-4 28.4-4 .8c-3.9.5-5.6.8-12.6.8-7.3-.5-13.5-1.2-19.4-5.9-5.8-4.4-8.8-11.3-8.8-18.5 0-6.3 2.2-13.2 5.9-18.2 1.3-1.6 3.7-4.4 7.8-7 9.7-6 20.3-6 23.9-6 .6 0 7.1 0 11.2.7 1.1.2 2.2.5 3.2.8L292.7 50" fill="#ff4539" data-color="3"></path>
    </g>
</svg>